<svg version="1" xmlns="http://www.w3.org/2000/svg" width="1365.333" height="1365.333" viewBox="0 0 1024.000000 1024.000000" preserveAspectRatio="xMidYMid meet"><metadata>Created by potrace 1.11, written by Peter Selinger 2001-2013</metadata><g fill="#000" stroke="none"><path d="M0 5120 l0 -5120 5120 0 5120 0 0 5120 0 5120 -5120 0 -5120 0 0 -5120z m6011 4429 c72 -72 125 -229 139 -408 8 -116 15 -136 67 -195 56 -61 93 -150 93 -221 0 -100 -50 -167 -113 -151 -35 8 -54 47 -68 138 -11 73 -53 186 -110 300 -16 33 -47 105 -69 161 -21 56 -52 136 -69 178 -17 43 -34 102 -37 132 -6 51 -4 58 19 81 20 19 36 26 67 26 34 0 47 -7 81 -41z m-1394 -17 c32 -20 81 -91 138 -197 76 -142 113 -191 295 -384 210 -223 240 -267 247 -354 9 -102 -30 -151 -104 -132 -48 12 -137 115 -187 218 -102 208 -172 292 -324 386 -70 44 -156 141 -195 220 -42 86 -50 182 -17 223 36 46 95 55 147 20z m2738 -957 c143 -37 282 -124 425 -264 106 -105 181 -203 225 -296 56 -117 69 -183 70 -340 0 -127 -3 -151 -32 -256 -84 -303 -260 -633 -474 -889 -162 -194 -443 -462 -622 -594 -284 -208 -484 -322 -838 -479 -81 -36 -183 -88 -227 -116 -109 -70 -216 -185 -268 -286 -52 -101 -71 -158 -138 -428 -68 -273 -100 -341 -206 -448 -59 -59 -95 -86 -165 -120 -88 -44 -90 -44 -189 -43 -89 1 -115 5 -216 39 -78 26 -133 39 -172 39 -58 1 -58 1 -124 -64 -36 -36 -179 -184 -317 -330 -299 -313 -754 -768 -1030 -1028 -109 -103 -336 -332 -504 -510 -168 -177 -308 -322 -312 -322 -3 0 -63 -56 -134 -125 l-127 -124 0 -53 c0 -39 8 -70 29 -112 16 -32 26 -67 23 -78 -6 -23 -218 -224 -397 -378 -150 -128 -329 -264 -430 -325 -68 -41 -71 -42 -100 -27 -40 20 -135 112 -207 200 l-60 73 30 62 c17 34 51 89 76 123 24 34 141 205 260 381 119 177 234 340 255 364 35 40 40 43 63 32 35 -16 98 -72 98 -87 0 -29 -169 -242 -545 -688 -78 -92 -87 -113 -70 -154 15 -35 76 -91 121 -110 69 -29 91 -19 249 114 285 241 457 414 470 474 5 19 -2 46 -19 84 -14 31 -26 64 -26 74 0 10 78 98 173 196 95 99 227 238 294 309 67 72 253 261 415 422 905 899 1236 1236 1346 1371 29 37 100 113 157 169 57 56 129 134 160 172 31 39 77 84 103 101 52 34 67 34 162 -5 150 -61 289 -91 377 -81 179 21 287 195 333 534 6 46 23 123 36 170 71 244 160 389 327 530 124 105 218 162 393 237 374 160 594 290 894 530 190 152 284 235 361 320 66 72 282 341 328 408 61 89 140 264 183 403 42 137 43 141 43 289 0 162 -8 201 -65 315 -92 183 -300 357 -485 405 -76 20 -233 20 -318 1 -129 -30 -296 -117 -455 -235 -351 -264 -818 -863 -1080 -1388 -33 -65 -76 -158 -97 -208 -53 -130 -139 -298 -199 -390 -178 -273 -398 -453 -746 -610 -80 -36 -169 -80 -198 -98 -80 -48 -175 -148 -217 -227 -83 -158 -87 -376 -10 -492 l27 -41 -65 -65 c-78 -77 -81 -77 -126 31 -108 260 -87 485 64 713 65 97 149 177 264 252 82 54 138 81 371 178 146 61 265 141 363 244 135 140 201 263 262 480 65 230 137 387 289 630 309 493 773 1000 1136 1242 85 56 267 147 350 174 141 45 297 57 405 29z m-3140 -486 c39 -23 111 -61 160 -86 130 -65 251 -140 296 -183 34 -32 39 -42 39 -83 0 -36 -5 -49 -22 -61 -45 -32 -70 -23 -312 109 -76 41 -98 49 -160 53 -39 3 -85 11 -103 18 -51 22 -102 72 -113 112 -18 65 -13 91 24 128 49 49 98 47 191 -7z m2690 -517 c131 -63 335 -245 377 -339 101 -222 -131 -483 -652 -735 -63 -31 -143 -77 -178 -102 -108 -80 -134 -79 -147 8 -12 80 -9 85 85 115 115 37 169 66 291 157 166 124 364 325 413 421 36 71 9 139 -102 253 -92 95 -132 80 -253 -98 -114 -166 -206 -286 -327 -425 -299 -345 -305 -356 -282 -557 11 -90 10 -106 -5 -146 -24 -64 -44 -74 -143 -74 -82 0 -85 -1 -118 -34 -31 -31 -34 -39 -34 -97 0 -47 -7 -78 -26 -119 -49 -105 -93 -131 -241 -140 -85 -6 -109 -11 -148 -34 -62 -37 -166 -136 -289 -276 -55 -63 -177 -196 -271 -295 -93 -100 -237 -253 -319 -340 -172 -183 -796 -833 -1121 -1165 -121 -124 -278 -288 -350 -365 -71 -77 -240 -257 -375 -400 -135 -143 -379 -405 -544 -583 -164 -177 -305 -322 -312 -322 -16 0 -94 73 -94 88 0 6 114 128 253 269 300 308 836 881 1009 1080 68 79 231 256 363 395 132 138 316 333 410 432 282 301 672 713 805 851 69 72 170 180 225 240 219 241 349 382 389 418 63 59 108 77 199 77 89 0 119 12 166 65 38 44 39 74 6 137 -24 46 -31 90 -19 123 12 30 59 44 175 50 131 7 188 24 224 66 21 26 25 40 25 97 -1 37 -7 94 -15 127 -22 94 -10 125 88 215 132 121 228 220 297 305 100 122 245 347 301 464 50 105 97 166 154 202 38 24 39 24 110 -9z m2035 -832 c253 -20 340 -29 360 -40 25 -13 58 -76 66 -127 14 -91 -74 -118 -275 -82 -69 12 -142 30 -162 40 -30 15 -51 17 -121 12 -105 -7 -143 8 -199 82 -44 59 -48 86 -18 116 24 24 37 24 349 -1z m-474 -966 c21 -15 66 -52 99 -83 81 -77 113 -98 208 -138 45 -19 98 -47 117 -62 19 -15 60 -40 90 -55 62 -31 276 -165 333 -209 49 -38 67 -74 67 -137 0 -41 -5 -56 -26 -76 -28 -29 -50 -28 -116 6 -61 31 -213 127 -274 174 -33 24 -133 86 -224 138 -299 171 -439 276 -456 343 -3 14 -1 39 6 56 30 71 106 90 176 43z m-935 -431 c14 -16 38 -57 53 -93 41 -97 82 -156 145 -205 58 -46 90 -81 180 -200 30 -38 73 -90 96 -115 53 -56 77 -103 79 -153 1 -31 -5 -44 -28 -64 -25 -21 -37 -24 -78 -21 -31 3 -62 15 -89 34 -42 29 -58 50 -215 288 -107 162 -141 204 -209 256 -70 54 -94 93 -101 168 -7 60 -6 62 29 97 46 46 100 49 138 8z" transform="translate(0.000000,1024.000000) scale(0.100000,-0.100000)"/></g></svg>